<svg id="Layer_1" data-name="Layer 1" xmlns="http://www.w3.org/2000/svg" viewBox="0 0 100 125"><title>logo-care</title><path d="M96.1,78.5l-27.4,16-1,.5a19.38,19.38,0,0,1-11.4,1.9L20.1,95.3a4.2,4.2,0,0,1-3.8,2.6l-8.2.6A4.93,4.93,0,0,1,2.8,94L1.5,75.9a4.88,4.88,0,0,1,4.6-5.1l8.2-.6a4.58,4.58,0,0,1,4.1,2.1c3.7-1.6,10.6-4.9,23-1.3a17.66,17.66,0,0,0,4.6.7l19.2.3a4.49,4.49,0,0,1,4.9,4.1,4.65,4.65,0,0,1-4,5l-21.5,2a1.24,1.24,0,0,0-1.1,1.4,1.2,1.2,0,0,0,1.3,1h.8s14.5-.2,24.4-2.3a15.43,15.43,0,0,0,5-2,3.51,3.51,0,0,1,.8-.5,116.24,116.24,0,0,1,12.3-7.2c1-.5,4.9-2.6,6.7-2.5a3.73,3.73,0,0,1,3.6,4.1A4.16,4.16,0,0,1,96.1,78.5ZM14,91.6a2.78,2.78,0,0,0-2.8-2.7,2.71,2.71,0,0,0-2.8,2.7,2.8,2.8,0,0,0,5.6,0ZM75.4,76.5a111.09,111.09,0,0,1,11.7-6.7,29.17,29.17,0,0,1,3.1-1.4,4.78,4.78,0,0,0-4.5-.4,123,123,0,0,0-11.6,5.5v.1a5.85,5.85,0,0,1,.4,1.9,7.52,7.52,0,0,1,0,1.5A4.05,4.05,0,0,0,75.4,76.5Zm3-10.6c-1.9.8-6.1,2.1-8,3.1a9.09,9.09,0,0,1,2.1,1.8,1.38,1.38,0,0,1,.4-.3l1.4-.8c2-1.1,6.3-2.6,8.6-3.6A5.1,5.1,0,0,0,78.4,65.9ZM51.8,50.1,74.2,27.7A15.34,15.34,0,1,0,52.5,6L50,8.5,47.4,6A15.23,15.23,0,0,0,36.6,1.5,15.53,15.53,0,0,0,25.5,6.2,15.62,15.62,0,0,0,26,27.9L48.2,50.1A2.53,2.53,0,0,0,51.8,50.1Z"/></svg>