<svg id="Layer_1" data-name="Layer 1" xmlns="http://www.w3.org/2000/svg" viewBox="0 0 100 125"><title>logo-mone</title><path d="M55.2,2.7V8.9a15.07,15.07,0,0,1,8.6,4.8,14.41,14.41,0,0,1,3.4,9,1.52,1.52,0,0,1-1.6,1.6l-8.2.1A1.62,1.62,0,0,1,55.8,23a7.66,7.66,0,0,0-1.4-4.1,4.65,4.65,0,0,0-3.8-1.8A4.33,4.33,0,0,0,47,18.6a6,6,0,0,0-1.2,3.8A5.77,5.77,0,0,0,47,26.2a13,13,0,0,0,4.6,3,42.2,42.2,0,0,1,11.6,6.7c2.5,2.2,3.7,5.4,3.7,9.6A12.58,12.58,0,0,1,63.2,55,15.86,15.86,0,0,1,55,59v5.7a1.37,1.37,0,0,1-1.4,1.4h-5a1.37,1.37,0,0,1-1.4-1.4V59.1a18.63,18.63,0,0,1-10.5-4.5c-2.6-2.4-4-5.7-4.2-10A1.58,1.58,0,0,1,34.1,43l8.1-.1a1.62,1.62,0,0,1,1.6,1.4,7.23,7.23,0,0,0,1.8,4.6,6.55,6.55,0,0,0,4.8,1.9,4.82,4.82,0,0,0,3.7-1.4,5.73,5.73,0,0,0,1.3-3.7,6,6,0,0,0-1.3-4.2,12.56,12.56,0,0,0-4.6-2.9c-5.4-2.1-9.2-4.3-11.7-6.5s-3.7-5.4-3.7-9.6A12.67,12.67,0,0,1,38,13c2.3-2.3,5.4-3.6,9.2-4.2v-6a1.37,1.37,0,0,1,1.4-1.4h5A1.36,1.36,0,0,1,55.2,2.7ZM96.1,78.5l-27.4,16-1,.5a19.38,19.38,0,0,1-11.4,1.9L20.1,95.3a4.2,4.2,0,0,1-3.8,2.6l-8.2.6A4.93,4.93,0,0,1,2.8,94L1.5,75.9a4.88,4.88,0,0,1,4.6-5.1l8.2-.6a4.58,4.58,0,0,1,4.1,2.1c3.7-1.6,10.6-4.9,23-1.3a17.66,17.66,0,0,0,4.6.7l19.2.3a4.49,4.49,0,0,1,4.9,4.1,4.65,4.65,0,0,1-4,5l-21.5,2a1.24,1.24,0,0,0-1.1,1.4,1.2,1.2,0,0,0,1.3,1h.8s14.5-.2,24.4-2.3a15.43,15.43,0,0,0,5-2,3.51,3.51,0,0,1,.8-.5,116.24,116.24,0,0,1,12.3-7.2c1-.5,4.9-2.6,6.7-2.5a3.73,3.73,0,0,1,3.6,4.1A4.16,4.16,0,0,1,96.1,78.5ZM14,91.6a2.78,2.78,0,0,0-2.8-2.7,2.71,2.71,0,0,0-2.8,2.7,2.8,2.8,0,0,0,5.6,0ZM75.4,76.5a111.09,111.09,0,0,1,11.7-6.7,29.17,29.17,0,0,1,3.1-1.4,4.78,4.78,0,0,0-4.5-.4,123,123,0,0,0-11.6,5.5v.1a5.85,5.85,0,0,1,.4,1.9,7.52,7.52,0,0,1,0,1.5A4.05,4.05,0,0,0,75.4,76.5Zm3-10.6c-1.9.8-6.1,2.1-8,3.1a9.09,9.09,0,0,1,2.1,1.8,1.38,1.38,0,0,1,.4-.3l1.4-.8c2-1.1,6.3-2.6,8.6-3.6A5.1,5.1,0,0,0,78.4,65.9Z"/></svg>