<svg id="Layer_1" data-name="Layer 1" xmlns="http://www.w3.org/2000/svg" viewBox="0 0 100 125"><title>logo-qualit</title><path d="M50,7l-5.59,3.84-6.66-1.4L34,15.12l-6.65,1.26-1.26,6.68-5.68,3.72,1.37,6.63L18,39l3.81,5.62-1.37,6.63L26.12,55l1.26,6.69L34,62.91l3.72,5.68,6.66-1.4L50,71l5.59-3.81,6.66,1.4L66,62.91l6.65-1.25L73.88,55l5.68-3.72-1.37-6.63L82,39l-3.81-5.59,1.37-6.63-5.68-3.72-1.26-6.68L66,15.12,62.25,9.44l-6.66,1.4Zm0,9A23,23,0,1,1,27,39,23,23,0,0,1,50,16Zm0,2A21,21,0,1,0,71,39,21,21,0,0,0,50,18Zm11.88,9.81,4.37,4.1-2.06,2.18-15,16-2,2.13L45,50.31l-9-8-2.25-2,4-4.5,2.25,2,6.81,6.07L59.81,30Zm-38.07,28L7,82l15-3,4,14L39.69,70.19l-1.53.31a2.08,2.08,0,0,1-2.1-.84l-3.25-5L27,63.56A2,2,0,0,1,25.41,62l-1.13-5.81-.47-.32Zm52.38,0-.47.32L74.59,62A2,2,0,0,1,73,63.56l-5.81,1.13-3.25,5a2.08,2.08,0,0,1-2.1.84l-1.53-.31L74,93l4-14,15,3L76.19,55.84Z"/></svg>